<svg width="33" height="33" viewBox="0 0 33 33" fill="none" xmlns="http://www.w3.org/2000/svg">
    <circle cx="16.281" cy="16.774" r="15" fill="#FFD8E0" stroke="#EE0033" stroke-width="2" />
    <g clip-path="url(#clip0_4_248)">
        <path d="M26.1683 9.97217C26.9435 11.0969 27.5312 12.3585 27.8859 13.7112H22.4292L26.1683 9.97217Z"
            fill="#29337A" />
        <path d="M19.6426 5.25525C21.0258 5.6555 22.3076 6.29895 23.4324 7.13999L19.6426 10.9297V5.25525Z"
            fill="#29337A" />
        <path d="M23.1487 26.6106C22.0898 27.3503 20.9093 27.9228 19.6376 28.2926V23.0995L23.1487 26.6106Z"
            fill="#29337A" />
        <path d="M27.7491 20.3179C27.3539 21.6048 26.7459 22.7955 25.9657 23.8543L22.4293 20.3179H27.7491Z"
            fill="#29337A" />
        <path
            d="M25.9707 9.69354C26.0366 9.78474 26.1024 9.87594 26.1683 9.9722L22.4292 13.7113H27.8858C27.972 14.0457 28.048 14.3902 28.1037 14.7398H20.9194L25.9707 9.69354Z"
            fill="white" />
        <path
            d="M23.4273 26.413C23.3361 26.4788 23.2398 26.5447 23.1486 26.6106L19.6376 23.1045V28.2977C19.2981 28.394 18.9587 28.4801 18.6091 28.551V21.5947L23.4273 26.413Z"
            fill="white" />
        <path
            d="M28.0125 19.2895C27.9365 19.6391 27.8504 19.9785 27.744 20.318H22.4242L25.9606 23.8544C25.5755 24.3813 25.1499 24.8728 24.6838 25.3288L18.6446 19.2895H28.0125Z"
            fill="white" />
        <path
            d="M19.6427 5.25528V10.9298L23.4324 7.14001C23.9543 7.53014 24.4457 7.96079 24.8967 8.42691L18.6142 14.7094V5.00195C18.9638 5.07288 19.3033 5.15395 19.6427 5.25528Z"
            fill="white" />
        <path d="M19.6426 20.2825L19.6781 20.3179H19.6426V20.2825Z" fill="#D32030" />
        <path d="M18.6497 19.2895H18.6142V19.254L18.6497 19.2895Z" fill="#D32030" />
        <path d="M14.0341 14.7397H14.0695V14.7752L14.0341 14.7397Z" fill="#D32030" />
        <path d="M19.6072 13.7163L19.6426 13.6808V13.7163H19.6072Z" fill="#D32030" />
        <path d="M18.6141 14.7043V14.7397H18.5787L18.6141 14.7043Z" fill="#D32030" />
        <path
            d="M13.041 25.6378V28.3281C11.7541 27.9684 10.5584 27.4009 9.48433 26.6612L12.3976 23.748C12.6306 24.5637 12.7168 24.9842 13.041 25.6378Z"
            fill="#252F6C" />
        <path
            d="M12.3824 10.2711L9.20061 7.08939C10.3456 6.24835 11.6376 5.61504 13.041 5.21985V7.98109C12.6661 8.73093 12.6357 9.30345 12.3824 10.2711Z"
            fill="#252F6C" />
        <path d="M6.64704 23.9253C5.84654 22.8462 5.22336 21.6302 4.81804 20.318H10.2544L6.64704 23.9253Z"
            fill="#252F6C" />
        <path d="M4.67618 13.7164C5.04096 12.3332 5.64388 11.0463 6.44438 9.90637L10.2544 13.7164H4.67618Z"
            fill="#252F6C" />
        <path
            d="M11.6832 19.4922L10.8573 20.318L6.91053 24.2649C6.81933 24.1534 6.7332 24.0419 6.64707 23.9254L10.2544 20.318H4.813C4.71167 19.9837 4.62047 19.6391 4.54447 19.2896H11.6021C11.6173 19.4365 11.668 19.3453 11.6832 19.4922Z"
            fill="#E7E7E7" />
        <path
            d="M12.504 10.869L8.9271 7.29208C9.01829 7.22115 9.10442 7.15528 9.19562 7.08435L12.3774 10.2661C12.347 10.3978 12.5395 10.7424 12.504 10.869Z"
            fill="#E7E7E7" />
        <path
            d="M13.0411 7.76326V5.21988C13.3755 5.12361 13.72 5.04761 14.0696 4.98175V6.22304C13.6845 6.63343 13.34 7.15528 13.0411 7.76326Z"
            fill="#E7E7E7" />
        <path
            d="M11.7644 14.7398H4.45849C4.51929 14.3902 4.59022 14.0508 4.67635 13.7113H10.2546L6.44456 9.90129C6.81948 9.36425 7.23493 8.86266 7.69092 8.39655L11.9822 12.6879C11.8657 13.4681 11.815 13.919 11.7644 14.7398Z"
            fill="#E7E7E7" />
        <path
            d="M12.5699 23.5707L9.47932 26.6613C8.9676 26.3066 8.48122 25.9115 8.0303 25.4859L12.0936 21.4225C12.2254 22.1724 12.3774 22.8969 12.5699 23.5707Z"
            fill="#E7E7E7" />
        <path
            d="M14.0696 27.1832V28.5663C13.72 28.5004 13.3805 28.4194 13.0411 28.3282V25.6379C13.34 26.2408 13.6845 26.7677 14.0696 27.1832Z"
            fill="#E7E7E7" />
        <path
            d="M11.982 12.6929L7.6907 8.40162C8.07575 8.00643 8.4912 7.63657 8.92692 7.29712L12.2961 10.6714C12.1492 11.2946 12.0833 12.009 11.982 12.6929Z"
            fill="#D71F28" />
        <path
            d="M16.8814 4.78919C16.6787 4.77905 16.4812 4.77399 16.2836 4.77399C16.4812 4.77399 16.6838 4.77905 16.8814 4.78919Z"
            fill="#D32030" />
        <path
            d="M16.2836 28.774C16.4812 28.774 16.6838 28.7689 16.8814 28.7588C16.6838 28.7689 16.4812 28.774 16.2836 28.774Z"
            fill="#D32030" />
        <path
            d="M16.2835 28.774C15.5286 28.774 14.7889 28.7031 14.0695 28.5663V27.1831C14.6977 27.8671 15.4374 28.774 16.2835 28.774Z"
            fill="#D32030" />
        <path
            d="M4.45834 14.7398H11.668C11.5717 16.2446 11.5818 17.7898 11.7034 19.2895H4.54954C4.37728 18.4789 4.28102 17.6378 4.28102 16.7765C4.28102 16.0824 4.34181 15.4035 4.45834 14.7398Z"
            fill="#D71F28" />
        <path
            d="M11.6831 19.4922C11.749 20.2015 11.982 20.7537 12.0986 21.4225L8.03524 25.4859C7.63499 25.1059 7.26007 24.6955 6.91048 24.2648L10.8573 20.318L11.6831 19.4922Z"
            fill="#D71F28" />
        <path
            d="M14.0695 6.30914V4.98171C14.7838 4.84492 15.5235 4.77399 16.2835 4.77399C15.4374 4.77399 14.6977 5.62516 14.0695 6.30914Z"
            fill="#D32030" />
        <path d="M13.041 26.1546C12.7168 25.5061 12.4381 24.7563 12.205 23.9355L13.041 23.0995V26.1546Z"
            fill="#29337A" />
        <path d="M12.0986 9.98742C12.352 9.01972 12.6661 8.14321 13.041 7.39337V10.9298L12.0986 9.98742Z"
            fill="#29337A" />
        <path d="M11.4503 19.7252C11.4351 19.5783 11.4249 19.4364 11.4148 19.2895H11.886L11.4503 19.7252Z"
            fill="white" />
        <path
            d="M13.0411 10.9298V7.39337C13.3451 6.78539 13.6845 6.26354 14.0696 5.85315V12.4345L12.0075 10.3725C12.0379 10.2458 12.0734 10.1191 12.1038 9.99248L13.0411 10.9298Z"
            fill="white" />
        <path d="M14.0341 14.7398H11.3793C11.4299 13.9191 11.5161 13.1135 11.6275 12.3333L14.0341 14.7398Z"
            fill="white" />
        <path
            d="M14.0696 27.6948C13.6896 27.2793 13.3451 26.7575 13.0411 26.1546V23.0995L12.2051 23.9355C12.0126 23.2616 11.8505 22.5472 11.7238 21.7923L14.0696 19.4465V27.6948Z"
            fill="white" />
        <path
            d="M14.0695 27.6948V19.4516L11.7237 21.7974C11.6072 21.1286 11.516 20.4345 11.4501 19.7252L11.8858 19.2895H11.4146C11.2981 17.7949 11.2829 16.2496 11.3792 14.7398H14.034L11.6274 12.3332C11.7288 11.6492 11.8554 10.9906 12.0023 10.3674L14.0644 12.4295V5.84808C14.6977 5.16917 15.4374 4.77399 16.2835 4.77399C16.4811 4.77399 16.6838 4.77905 16.8814 4.78919C17.4691 4.81959 18.0517 4.89052 18.6141 5.00198V14.7043L24.8966 8.42186C25.2816 8.82212 25.6414 9.24264 25.9707 9.69356L21.953 13.7113L20.9245 14.7398H28.1087C28.2202 15.3984 28.281 16.0773 28.281 16.7715C28.281 17.6328 28.1898 18.4738 28.0125 19.2844H18.6496L24.6939 25.3288C24.2987 25.7189 23.8782 26.0786 23.4324 26.4079L18.6192 21.5948V28.5409C18.0517 28.6524 17.4742 28.7233 16.8865 28.7537C16.6889 28.7639 16.4862 28.7689 16.2886 28.7689C15.4374 28.774 14.6977 28.3788 14.0695 27.6948Z"
            fill="#E51D35" />
    </g>
    <defs>
        <clipPath id="clip0_4_248">
            <rect width="24" height="24" fill="white" transform="matrix(-1 0 0 1 28.281 4.77399)" />
        </clipPath>
    </defs>
</svg>