<svg width="33" height="33" viewBox="0 0 33 33" fill="none" xmlns="http://www.w3.org/2000/svg">
<circle cx="16.2018" cy="16.7765" r="15" fill="#FFD8E0" stroke="#EE0033" stroke-width="2"/>
<path d="M4.88595 12.7782C4.88595 12.7731 4.88595 12.7731 4.89102 12.768C6.42142 8.43526 10.3741 5.24776 15.1224 4.82715C13.288 5.83559 12.7508 9.02309 12.2795 12.7782C11.9603 15.3424 11.9552 18.165 12.2745 20.7342C12.7407 24.5096 13.2778 27.7224 15.1224 28.7309C10.3691 28.3052 6.41129 25.1076 4.88088 20.7646C4.87581 20.7545 4.87581 20.7393 4.87074 20.7292C4.44 19.4927 4.20183 18.1599 4.20183 16.7765C4.19676 15.3728 4.44 14.0299 4.88595 12.7782Z" fill="#E12A28"/>
<path d="M11.6615 12.7782C12.1328 9.02311 13.2882 5.83561 15.1226 4.82716C15.4774 4.79676 15.8372 4.77649 16.202 4.77649C21.4216 4.77649 25.8608 8.11095 27.5128 12.768C27.5128 12.7731 27.5128 12.7731 27.5179 12.7782C27.9588 14.0299 28.202 15.3728 28.202 16.7765C28.202 18.1599 27.9639 19.4927 27.5331 20.7292C27.528 20.7393 27.528 20.7495 27.523 20.7647C25.876 25.4319 21.4318 28.7765 16.202 28.7765C15.8372 28.7765 15.4774 28.7562 15.1226 28.7258C13.278 27.7123 12.1226 24.4995 11.6564 20.7292C11.3372 18.165 11.3422 15.3424 11.6615 12.7782Z" fill="#ED3432"/>
<path d="M16.3083 10.6295L14.8793 15.013H10.2678L14.0026 17.7292L12.5735 22.1177L16.3083 19.4015L20.0381 22.1177L18.6141 17.7292L22.3489 15.013H17.7323L16.3083 10.6295Z" fill="#FDCE0C"/>
</svg>
