<svg width="25" height="25" viewBox="0 0 25 25" fill="none" xmlns="http://www.w3.org/2000/svg">
<g clip-path="url(#clip0_4_303)">
<path d="M22.0891 5.31799C22.8643 6.44276 23.452 7.70431 23.8066 9.05707H18.35L22.0891 5.31799Z" fill="#29337A"/>
<path d="M15.5634 0.601074C16.9466 1.00133 18.2284 1.64477 19.3531 2.48581L15.5634 6.27555V0.601074Z" fill="#29337A"/>
<path d="M19.0695 21.9564C18.0106 22.6961 16.8301 23.2686 15.5584 23.6385V18.4453L19.0695 21.9564Z" fill="#29337A"/>
<path d="M23.6699 15.6638C23.2747 16.9506 22.6667 18.1413 21.8865 19.2002L18.35 15.6638H23.6699Z" fill="#29337A"/>
<path d="M21.8915 5.03937C21.9573 5.13056 22.0232 5.22176 22.0891 5.31803L18.35 9.0571H23.8066C23.8927 9.39149 23.9687 9.73601 24.0245 10.0856H16.8402L21.8915 5.03937Z" fill="white"/>
<path d="M19.3481 21.7588C19.2569 21.8247 19.1606 21.8905 19.0694 21.9564L15.5583 18.4504V23.6435C15.2189 23.7398 14.8794 23.8259 14.5298 23.8969V16.9406L19.3481 21.7588Z" fill="white"/>
<path d="M23.9333 14.6353C23.8573 14.9849 23.7712 15.3244 23.6648 15.6638H18.3449L21.8814 19.2002C21.4963 19.7271 21.0707 20.2186 20.6046 20.6746L14.5653 14.6353H23.9333Z" fill="white"/>
<path d="M15.5635 0.601103V6.27558L19.3532 2.48584C19.8751 2.87596 20.3665 3.30661 20.8174 3.77273L14.535 10.0552V0.347778C14.8846 0.418709 15.224 0.499773 15.5635 0.601103Z" fill="white"/>
<path d="M15.5634 15.6283L15.5989 15.6638H15.5634V15.6283Z" fill="#D32030"/>
<path d="M14.5704 14.6353H14.535V14.5999L14.5704 14.6353Z" fill="#D32030"/>
<path d="M9.95483 10.0856H9.9903V10.121L9.95483 10.0856Z" fill="#D32030"/>
<path d="M15.528 9.06214L15.5634 9.02667V9.06214H15.528Z" fill="#D32030"/>
<path d="M14.5349 10.0501V10.0856H14.4994L14.5349 10.0501Z" fill="#D32030"/>
<path d="M8.96179 20.9836V23.6739C7.6749 23.3142 6.47921 22.7468 5.40511 22.007L8.31835 19.0938C8.55141 19.9095 8.63754 20.33 8.96179 20.9836Z" fill="#252F6C"/>
<path d="M8.30315 5.61697L5.12139 2.43521C6.26641 1.59417 7.55837 0.960861 8.96179 0.565674V3.32692C8.58687 4.07676 8.55647 4.64927 8.30315 5.61697Z" fill="#252F6C"/>
<path d="M2.56782 19.2712C1.76731 18.192 1.14413 16.976 0.738813 15.6638H6.17517L2.56782 19.2712Z" fill="#252F6C"/>
<path d="M0.596952 9.0622C0.96174 7.67905 1.56465 6.39216 2.36516 5.2522L6.17517 9.0622H0.596952Z" fill="#252F6C"/>
<path d="M7.60394 14.838L6.7781 15.6639L2.8313 19.6107C2.74011 19.4992 2.65398 19.3878 2.56784 19.2712L6.17519 15.6639H0.733772C0.632442 15.3295 0.541245 14.985 0.465248 14.6354H7.52288C7.53808 14.7823 7.58874 14.6911 7.60394 14.838Z" fill="#E7E7E7"/>
<path d="M8.42482 6.21485L4.84787 2.6379C4.93907 2.56697 5.0252 2.50111 5.1164 2.43018L8.29816 5.61193C8.26776 5.74366 8.46029 6.08818 8.42482 6.21485Z" fill="#E7E7E7"/>
<path d="M8.96186 3.10908V0.565701C9.29625 0.469438 9.64077 0.39344 9.99036 0.327576V1.56887C9.6053 1.97925 9.26078 2.5011 8.96186 3.10908Z" fill="#E7E7E7"/>
<path d="M7.68516 10.0856H0.379268C0.440066 9.73604 0.510998 9.39658 0.597129 9.05713H6.17534L2.36534 5.24712C2.74026 4.71007 3.15571 4.20849 3.61169 3.74237L7.90302 8.03369C7.78649 8.81393 7.73582 9.26485 7.68516 10.0856Z" fill="#E7E7E7"/>
<path d="M8.49066 18.9166L5.4001 22.0071C4.88838 21.6525 4.402 21.2573 3.95108 20.8317L8.01441 16.7684C8.14614 17.5182 8.29813 18.2427 8.49066 18.9166Z" fill="#E7E7E7"/>
<path d="M9.99036 22.529V23.9121C9.64077 23.8463 9.30131 23.7652 8.96186 23.674V20.9837C9.26078 21.5866 9.6053 22.1135 9.99036 22.529Z" fill="#E7E7E7"/>
<path d="M7.9028 8.03876L3.61147 3.74744C3.99653 3.35225 4.41198 2.9824 4.8477 2.64294L8.21692 6.01723C8.06999 6.64041 8.00413 7.35479 7.9028 8.03876Z" fill="#D71F28"/>
<path d="M12.8022 0.135012C12.5995 0.124879 12.4019 0.119812 12.2043 0.119812C12.4019 0.119812 12.6046 0.124879 12.8022 0.135012Z" fill="#D32030"/>
<path d="M12.2043 24.1198C12.4019 24.1198 12.6046 24.1147 12.8022 24.1046C12.6046 24.1147 12.4019 24.1198 12.2043 24.1198Z" fill="#D32030"/>
<path d="M12.2043 24.1198C11.4494 24.1198 10.7097 24.0489 9.99023 23.9121V22.5289C10.6185 23.2129 11.3582 24.1198 12.2043 24.1198Z" fill="#D32030"/>
<path d="M0.379121 10.0856H7.58874C7.49248 11.5904 7.50261 13.1357 7.62421 14.6353H0.470319C0.298058 13.8247 0.201794 12.9837 0.201794 12.1224C0.201794 11.4283 0.262591 10.7493 0.379121 10.0856Z" fill="#D71F28"/>
<path d="M7.60389 14.838C7.66976 15.5473 7.90282 16.0996 8.01935 16.7683L3.95602 20.8317C3.55576 20.4517 3.18084 20.0413 2.83126 19.6107L6.77806 15.6639L7.60389 14.838Z" fill="#D71F28"/>
<path d="M9.99023 1.65496V0.327538C10.7046 0.190743 11.4443 0.119812 12.2043 0.119812C11.3582 0.119812 10.6185 0.970984 9.99023 1.65496Z" fill="#D32030"/>
<path d="M8.96179 21.5005C8.63754 20.852 8.35888 20.1021 8.12582 19.2813L8.96179 18.4454V21.5005Z" fill="#29337A"/>
<path d="M8.01942 5.33325C8.27275 4.36554 8.58687 3.48904 8.96179 2.7392V6.27561L8.01942 5.33325Z" fill="#29337A"/>
<path d="M7.37104 15.071C7.35584 14.9241 7.34571 14.7822 7.33558 14.6353H7.80676L7.37104 15.071Z" fill="white"/>
<path d="M8.96186 6.27561V2.73919C9.26585 2.13121 9.6053 1.60936 9.99036 1.19897V7.78036L7.92829 5.71829C7.95869 5.59163 7.99416 5.46497 8.02456 5.3383L8.96186 6.27561Z" fill="white"/>
<path d="M9.9549 10.0857H7.30005C7.35071 9.26489 7.43684 8.45932 7.54831 7.67908L9.9549 10.0857Z" fill="white"/>
<path d="M9.99036 23.0406C9.61037 22.6252 9.26585 22.1033 8.96186 21.5004V18.4453L8.12589 19.2813C7.93336 18.6074 7.77123 17.8931 7.64457 17.1381L9.99036 14.7924V23.0406Z" fill="white"/>
<path d="M9.99026 23.0406V14.7975L7.64447 17.1432C7.52794 16.4745 7.43674 15.7804 7.37087 15.071L7.80659 14.6353H7.33541C7.21888 13.1407 7.20368 11.5954 7.29994 10.0856H9.95479L7.5482 7.67903C7.64953 6.99505 7.7762 6.3364 7.92312 5.71322L9.98519 7.77529V1.19391C10.6185 0.514999 11.3582 0.119812 12.2043 0.119812C12.4019 0.119812 12.6046 0.124879 12.8022 0.135012C13.3899 0.16541 13.9725 0.236341 14.5349 0.347804V10.0501L20.8174 3.76769C21.2024 4.16794 21.5621 4.58846 21.8915 5.03938L17.8737 9.05711L16.8452 10.0856H24.0295C24.141 10.7443 24.2018 11.4232 24.2018 12.1173C24.2018 12.9786 24.1106 13.8196 23.9333 14.6303H14.5704L20.6147 20.6746C20.2195 21.0647 19.799 21.4244 19.3531 21.7538L14.54 16.9406V23.8868C13.9725 23.9982 13.3949 24.0691 12.8072 24.0995C12.6096 24.1097 12.407 24.1147 12.2094 24.1147C11.3582 24.1198 10.6185 23.7246 9.99026 23.0406Z" fill="#E51D35"/>
</g>
<defs>
<clipPath id="clip0_4_303">
<rect width="24" height="24" fill="white" transform="matrix(-1 0 0 1 24.2018 0.119812)"/>
</clipPath>
</defs>
</svg>
