<svg width="28" height="16" viewBox="0 0 28 16" fill="none" xmlns="http://www.w3.org/2000/svg">
<path d="M14 0C18.0438 0 22.0915 0.576056 26.1412 1.72733C27.1651 2.01841 27.9029 3.02202 27.9911 4.20642L28 4.44556V9.39786C28 12.9336 25.5688 15.8202 22.5133 15.9919L22.2251 16H18.7667C17.752 16 16.7823 15.5423 16.0647 14.7339L15.8754 14.5049L14.9613 13.3163L14.8451 13.1835C14.3551 12.6911 13.6285 12.704 13.1526 13.1862L13.0392 13.3165L12.126 14.5043C11.456 15.3758 10.5148 15.9064 9.50979 15.9887L9.23426 16H5.77553C2.68245 16 0.157269 13.2202 0.00706825 9.72668L0 9.39713V4.44552C0 3.15894 0.766656 2.03782 1.85877 1.72733C5.90852 0.576056 9.95618 0 14 0ZM14 2.40082C10.1284 2.40082 6.25085 2.95267 2.36554 4.0572C2.24073 4.09269 2.14567 4.20229 2.11264 4.33881L2.1 4.44552V9.39713C2.1 11.6286 3.62144 13.4538 5.54308 13.5909L5.77553 13.5992H9.23426C9.67462 13.5992 10.0963 13.4095 10.4175 13.0726L10.5487 12.9193L11.4619 11.7315C12.6941 10.1288 14.8295 9.97145 16.2315 11.3802L16.3898 11.55L16.5384 11.731L17.4525 12.9196C17.7432 13.2976 18.1461 13.5344 18.5794 13.5877L18.7667 13.5992H22.2251C24.1766 13.5992 25.7729 11.8601 25.8928 9.66356L25.9 9.39786V4.44549C25.9 4.26171 25.7905 4.10156 25.6345 4.0572C21.7492 2.95267 17.8716 2.40082 14 2.40082ZM20.6523 4.80165L22.7523 4.80805C23.3322 4.80982 23.8011 5.34869 23.7995 6.01166C23.7981 6.61938 23.4019 7.12042 22.8892 7.19834L22.7467 7.20887L20.6467 7.20247C20.0668 7.2007 19.598 6.66182 19.5995 5.99886C19.601 5.39114 19.9972 4.8901 20.5098 4.81217L20.6523 4.80165ZM7.35046 4.80165C7.93035 4.80165 8.40046 5.33909 8.40046 6.00206C8.40046 6.60978 8.00544 7.11202 7.49293 7.19151L7.35046 7.20247H5.24591C4.66601 7.20247 4.19591 6.66503 4.19591 6.00206C4.19591 5.39434 4.59092 4.89209 5.10343 4.8126L5.24591 4.80165H7.35046ZM14 4.00137C14.5799 4.00137 15.05 4.53881 15.05 5.20178C15.05 5.86475 14.5799 6.40219 14 6.40219C13.4201 6.40219 12.95 5.86475 12.95 5.20178C12.95 4.53881 13.4201 4.00137 14 4.00137Z" fill="white"/>
</svg>
