<svg width="40" height="40" viewBox="0 0 40 40" fill="none" xmlns="http://www.w3.org/2000/svg">
<rect width="40" height="40" rx="20" fill="#EE0033"/>
<g clip-path="url(#clip0_29_403)">
<path fill-rule="evenodd" clip-rule="evenodd" d="M10.6111 19.4254C6.26929 23.876 17.9646 26.5791 20.5994 26.5353V23.8212L22.7888 27.907L20.5994 32V29.4574C15.3045 29.8331 2.84156 23.4674 10.3377 18.1851C10.408 18.5974 10.4939 18.9877 10.5916 19.3525L10.6111 19.4254ZM29.1638 11.0315C29.1638 10.0793 29.2556 9.41176 29.4392 9.03238C29.6228 8.65299 29.9021 8.46329 30.2791 8.46329C30.4587 8.46329 30.6091 8.50707 30.7244 8.58732C30.8396 8.67123 30.9353 8.77702 31.0076 8.91199C31.0818 9.04332 31.1384 9.18559 31.1814 9.33151C31.2244 9.47743 31.2576 9.64888 31.283 9.84587C31.3337 10.218 31.3572 10.6083 31.3572 11.0169C31.3572 11.9252 31.2752 12.5928 31.1091 13.0123C30.9451 13.4318 30.6619 13.6434 30.2576 13.6434C30.033 13.6434 29.8494 13.5741 29.7107 13.4428C29.572 13.3078 29.4568 13.1108 29.3689 12.8518C29.3045 12.6658 29.2537 12.414 29.2185 12.0967C29.1814 11.772 29.1638 11.4218 29.1638 11.0315ZM13.1697 11.8267L11.4119 11.243C11.5584 10.1997 11.8377 9.39717 12.2537 8.83903C12.6677 8.28089 13.2556 8 14.0154 8C14.8884 8 15.5173 8.30278 15.908 8.91199C16.2966 9.5212 16.49 10.2873 16.49 11.2066C16.49 11.7465 16.4099 12.2353 16.2537 12.6694C16.0955 13.1072 15.8591 13.4902 15.5408 13.8185C15.7986 13.9389 15.9978 14.0775 16.1326 14.238C16.3552 14.4934 16.5271 14.8326 16.6502 15.2485C16.7732 15.668 16.8357 16.1642 16.8357 16.7442C16.8357 17.4738 16.7341 18.1705 16.531 18.8418C16.3259 19.5093 16.033 20.0237 15.6502 20.3849C15.2673 20.746 14.7634 20.9248 14.1384 20.9248C13.531 20.9248 13.0505 20.7898 12.7009 20.5235C12.3494 20.2572 12.0603 19.8668 11.8337 19.3488C11.6072 18.8345 11.4334 18.1851 11.3123 17.4045L13.1736 16.9412C13.2478 17.6416 13.3591 18.1304 13.5134 18.404C13.6658 18.674 13.8611 18.8126 14.0994 18.8126C14.3474 18.8126 14.5545 18.6411 14.7205 18.3019C14.8865 17.9626 14.9685 17.5066 14.9685 16.9375C14.9685 16.3575 14.8884 15.9088 14.7302 15.5914C14.572 15.2741 14.3552 15.1135 14.0818 15.1135C13.9373 15.1135 13.7361 15.1792 13.4822 15.3178L13.5779 12.8336C13.6795 12.8627 13.7595 12.8773 13.8162 12.8773C14.0564 12.8773 14.2576 12.7314 14.4177 12.4432C14.5779 12.155 14.6599 11.8158 14.6599 11.4181C14.6599 11.0351 14.5994 10.7323 14.4783 10.5098C14.3572 10.2836 14.1892 10.1705 13.9802 10.1705C13.7615 10.1705 13.5857 10.2946 13.449 10.539C13.3103 10.7798 13.2185 11.2102 13.1697 11.8267ZM22.6775 11.0169L20.8259 11.44C20.7771 10.9585 20.697 10.6229 20.5837 10.4259C20.4685 10.2289 20.3279 10.1304 20.1619 10.1304C19.8611 10.1304 19.6267 10.4113 19.4607 10.9804C19.3396 11.3926 19.2478 12.2645 19.1912 13.6033C19.4138 13.1801 19.6423 12.87 19.8748 12.6694C20.1091 12.4688 20.3806 12.3666 20.6873 12.3666C21.2849 12.3666 21.7888 12.7642 22.2009 13.5595C22.613 14.3584 22.8201 15.3689 22.8201 16.591C22.8201 17.4154 22.7166 18.1669 22.5076 18.8527C22.2986 19.5349 22.0095 20.0529 21.6404 20.4031C21.2693 20.7533 20.8064 20.9284 20.2478 20.9284C19.5779 20.9284 19.0408 20.7168 18.6365 20.2864C18.2322 19.8596 17.908 19.181 17.6658 18.2472C17.4236 17.3133 17.3025 16.0766 17.3025 14.5335C17.3025 12.2791 17.5564 10.6265 18.0662 9.57592C18.572 8.52531 19.2771 8 20.1795 8C20.7127 8 21.1326 8.11309 21.4412 8.34291C21.7498 8.57273 22.0076 8.91199 22.2107 9.34975C22.4158 9.7948 22.572 10.3493 22.6775 11.0169ZM19.2537 16.591C19.2537 17.2695 19.3455 17.7984 19.5271 18.1815C19.7107 18.5645 19.9334 18.7579 20.199 18.7579C20.4431 18.7579 20.6482 18.5828 20.8123 18.2362C20.9763 17.8896 21.0584 17.3716 21.0584 16.6822C21.0584 15.9781 20.9724 15.4382 20.8025 15.0698C20.6306 14.7013 20.4197 14.5153 20.1658 14.5153C19.908 14.5153 19.6892 14.694 19.5134 15.0552C19.3396 15.4127 19.2537 15.9234 19.2537 16.591ZM23.2166 14.4095C23.2166 12.0347 23.4451 10.3712 23.9041 9.42271C24.3611 8.47424 25.0603 8 25.9959 8C26.447 8 26.8162 8.10579 27.1052 8.31008C27.3943 8.51801 27.6306 8.78796 27.8123 9.11993C27.9959 9.45189 28.1404 9.8021 28.2439 10.1669C28.3494 10.5353 28.4334 10.9622 28.4978 11.451C28.6228 12.3812 28.6853 13.3552 28.6853 14.3694C28.6853 16.6384 28.4802 18.2946 28.0681 19.3452C27.658 20.3958 26.9509 20.9211 25.9451 20.9211C25.3826 20.9211 24.9275 20.7533 24.5798 20.4177C24.2322 20.0821 23.949 19.5896 23.7263 18.9403C23.5662 18.4806 23.4392 17.8532 23.3494 17.0543C23.2615 16.259 23.2166 15.3762 23.2166 14.4095ZM25.0584 14.4168C25.0584 16.0073 25.1326 17.0944 25.2849 17.6781C25.4353 18.2617 25.6541 18.5499 25.9412 18.5499C26.1306 18.5499 26.2927 18.4259 26.4314 18.1815C26.5701 17.9334 26.6716 17.5394 26.7361 17.0068C26.8025 16.4706 26.8337 15.6389 26.8337 14.508C26.8337 12.8482 26.7595 11.7355 26.6072 11.1591C26.4568 10.5901 26.2302 10.3019 25.9295 10.3019C25.6209 10.3019 25.4002 10.5937 25.2615 11.1737C25.1267 11.7611 25.0584 12.8409 25.0584 14.4168ZM29.9021 11.0351C29.9021 11.6735 29.9314 12.1076 29.992 12.3411C30.0525 12.5746 30.1404 12.6913 30.2556 12.6913C30.3318 12.6913 30.3962 12.6439 30.4529 12.5417C30.5076 12.4432 30.5486 12.2864 30.5759 12.0711C30.6013 11.8559 30.615 11.5239 30.615 11.0716C30.615 10.4077 30.5857 9.95896 30.5252 9.72914C30.4646 9.49932 30.3748 9.38623 30.2537 9.38623C30.1306 9.38623 30.0408 9.50296 29.9861 9.73643C29.9295 9.9699 29.9021 10.404 29.9021 11.0351ZM29.3474 19.0278C31.4099 20.9868 30.9177 23.7665 27.2654 25.4555C26.2302 25.9334 25.0603 26.3675 23.7771 26.5463V28.7533C25.2048 28.5673 26.533 27.9544 27.6951 27.4291C33.1873 24.9448 32.9959 20.5089 29.5232 18.0064C29.4744 18.3675 29.4158 18.7068 29.3474 19.0278Z" fill="white"/>
</g>
<defs>
<clipPath id="clip0_29_403">
<rect width="24" height="24" fill="white" transform="translate(8 8)"/>
</clipPath>
</defs>
</svg>
