<svg width="12" height="32" viewBox="0 0 12 32" fill="none" xmlns="http://www.w3.org/2000/svg">
<path d="M5.78978 0.0246917C6.31965 -0.0377372 6.85603 0.0185381 7.36388 0.189841C7.87173 0.361143 8.33962 0.643617 8.73698 1.01881C9.13434 1.394 9.45223 1.85346 9.66987 2.36716C9.8875 2.88087 10 3.43727 10 4C10 4.56273 9.8875 5.11913 9.66987 5.63284C9.45223 6.14654 9.13434 6.606 8.73698 6.98119C8.33962 7.35638 7.87173 7.63886 7.36388 7.81016C6.85603 7.98146 6.31965 8.03774 5.78978 7.97531C5.2921 7.97531 4.79929 7.87184 4.3395 7.67083C3.8797 7.46981 3.46191 7.17517 3.11 6.80374C2.39928 6.05359 2 5.03617 2 3.97531C2.01231 2.92302 2.41702 1.91825 3.12641 1.17875C3.8358 0.439253 4.79272 0.0246115 5.78978 0.0246917Z" fill="white"/>
<path d="M12 32H0V30.1432L1.51111 29.4536C1.91692 29.2701 2.26621 28.9433 2.51238 28.5168C2.75855 28.0903 2.88989 27.5843 2.88889 27.0663V16.9867C2.88989 16.4688 2.75855 15.9628 2.51238 15.5362C2.26621 15.1097 1.91692 14.7829 1.51111 14.5995L0 13.9098V12H9.11111V27.0663C9.11011 27.5843 9.24145 28.0903 9.48762 28.5168C9.73379 28.9433 10.0831 29.2701 10.4889 29.4536L12 30.1432V32Z" fill="white"/>
</svg>
