<svg width="16" height="16" viewBox="0 0 16 16" fill="none" xmlns="http://www.w3.org/2000/svg">
    <g clip-path="url(#clip0_5_59)">
        <path
            d="M8.05297 0.784976C7.87698 0.697 7.66991 0.697 7.49391 0.784976L1.24393 3.90998C1.03219 4.01584 0.898438 4.23226 0.898438 4.46899C0.898438 4.70573 1.03219 4.92214 1.24393 5.02801L7.49391 8.15299C7.66991 8.24099 7.87698 8.24099 8.05297 8.15299L14.303 5.02801C14.5147 4.92214 14.6484 4.70573 14.6484 4.46899C14.6484 4.23226 14.5147 4.01584 14.303 3.90998L8.05297 0.784976Z"
            fill="#333" />
        <path
            d="M0.964434 10.4395C1.1188 10.1307 1.49422 10.0056 1.80296 10.1599L7.77344 13.1452L13.7439 10.1599C14.0527 10.0056 14.4281 10.1307 14.5824 10.4395C14.7368 10.7482 14.6117 11.1236 14.3029 11.278L8.05294 14.403C7.877 14.491 7.66988 14.491 7.49394 14.403L1.24395 11.278C0.935209 11.1236 0.810067 10.7482 0.964434 10.4395Z"
            fill="#333" />
        <path
            d="M1.80296 7.03493C1.49422 6.88062 1.1188 7.00574 0.964434 7.31449C0.810067 7.62318 0.935209 7.99862 1.24395 8.15299L7.49394 11.278C7.66988 11.366 7.877 11.366 8.05294 11.278L14.3029 8.15299C14.6117 7.99862 14.7368 7.62318 14.5824 7.31449C14.4281 7.00574 14.0527 6.88062 13.7439 7.03493L7.77344 10.0202L1.80296 7.03493Z"
            fill="#333" />
    </g>
    <defs>
        <clipPath id="clip0_5_59">
            <rect width="15" height="15" fill="white" transform="translate(0.273315 0.0939941)" />
        </clipPath>
    </defs>
</svg>