<svg width="27" height="24" viewBox="0 0 27 24" fill="none" xmlns="http://www.w3.org/2000/svg">
<path d="M26.2667 4.59769L17.9333 0.0960369C17.8162 0.0368866 17.6842 0.00582077 17.55 0.00582077C17.4157 0.00582077 17.2837 0.0368866 17.1667 0.0960369L9.16667 4.37261L1.26668 0.0960369C1.13596 0.03299 0.989971 0 0.84168 0C0.693389 0 0.547396 0.03299 0.41668 0.0960369C0.292884 0.163683 0.189888 0.25818 0.117103 0.370894C0.0443168 0.483608 0.00406139 0.610946 1.41338e-05 0.741274V18.7479C-0.000823398 18.8774 0.0355748 19.0049 0.105668 19.1179C0.175762 19.231 0.277165 19.3258 0.400014 19.3931L8.73334 23.8948C8.85042 23.9539 8.98242 23.985 9.11667 23.985C9.25092 23.985 9.38292 23.9539 9.5 23.8948L17.4 19.6182L25.3 23.8948C25.4303 23.9663 25.5807 24.0028 25.7333 23.9998C25.878 23.9988 26.0205 23.968 26.15 23.9098C26.2948 23.8527 26.4195 23.7609 26.5106 23.6445C26.6017 23.5282 26.6556 23.3916 26.6667 23.2496V5.24293C26.6675 5.11345 26.6311 4.98597 26.561 4.8729C26.4909 4.75984 26.3895 4.66503 26.2667 4.59769ZM1.66668 2.06176L8.33334 5.66309V21.9291L1.66668 18.3277V2.06176ZM19.4167 12.9708L17.5 14.6814L15.5833 12.9708C15.1298 12.5037 14.8903 11.899 14.9134 11.279C14.9365 10.659 15.2204 10.07 15.7076 9.63138C16.1948 9.19272 16.849 8.93713 17.5376 8.91636C18.2262 8.89559 18.8979 9.11119 19.4167 9.51951C19.9195 9.97979 20.2013 10.5995 20.2013 11.2451C20.2013 11.8907 19.9195 12.5105 19.4167 12.9708ZM25 21.9741L18.3333 18.3728V16.0619L20.5833 14.0212C20.9915 13.6583 21.3156 13.226 21.5368 12.7495C21.758 12.2729 21.8719 11.7616 21.8719 11.2451C21.8719 10.7287 21.758 10.2173 21.5368 9.7408C21.3156 9.26427 20.9915 8.83202 20.5833 8.46912C19.7525 7.75545 18.6483 7.35728 17.5 7.35728C16.3517 7.35728 15.2475 7.75545 14.4167 8.46912C14.0105 8.83304 13.6882 9.26562 13.4683 9.74202C13.2484 10.2184 13.1351 10.7292 13.1351 11.2451C13.1351 11.761 13.2484 12.2719 13.4683 12.7483C13.6882 13.2247 14.0105 13.6572 14.4167 14.0212L16.6667 16.0619V18.3277L10 21.9291V5.66309L16.6667 2.06176V5.24293C16.6667 5.44192 16.7545 5.63275 16.9107 5.77346C17.067 5.91416 17.279 5.99321 17.5 5.99321C17.721 5.99321 17.933 5.91416 18.0893 5.77346C18.2455 5.63275 18.3333 5.44192 18.3333 5.24293V2.06176L25 5.66309V21.9741ZM18.0833 10.7199C18.1975 10.8248 18.275 10.9576 18.3062 11.1017C18.3374 11.2459 18.321 11.3951 18.2589 11.5309C18.1967 11.6667 18.0917 11.7831 17.9568 11.8657C17.8219 11.9482 17.6631 11.9934 17.5 11.9954C17.3959 12.0177 17.2874 12.0177 17.1833 11.9954C17.0793 11.9634 16.9871 11.9063 16.9167 11.8304C16.8369 11.763 16.7734 11.6816 16.73 11.5913C16.6865 11.501 16.6641 11.4036 16.6641 11.3052C16.6641 11.2067 16.6865 11.1093 16.73 11.019C16.7734 10.9287 16.8369 10.8473 16.9167 10.78C17.0635 10.6342 17.2681 10.5462 17.4864 10.535C17.7046 10.5238 17.919 10.5902 18.0833 10.7199Z" fill="white"/>
</svg>
