<svg width="41" height="40" viewBox="0 0 41 40" fill="none" xmlns="http://www.w3.org/2000/svg">
<path d="M32.2297 31.3452C32.2297 33.7603 27.223 35.718 21.0469 35.718C14.8708 35.718 9.86411 33.7603 9.86411 31.3452C9.86411 28.9303 14.8708 26.9725 21.0469 26.9725C27.223 26.9725 32.2297 28.9303 32.2297 31.3452Z" fill="white"/>
<path fill-rule="evenodd" clip-rule="evenodd" d="M30.8643 32.521C31.3411 32.0801 31.5129 31.6822 31.5129 31.3452C31.5129 31.0083 31.3411 30.6103 30.8643 30.1696C30.3867 29.728 29.6562 29.2973 28.6932 28.9209C26.7719 28.1696 24.0688 27.6893 21.0469 27.6893C18.025 27.6893 15.3219 28.1696 13.4005 28.9209C12.4376 29.2973 11.7071 29.728 11.2295 30.1696C10.7527 30.6103 10.581 31.0083 10.581 31.3452C10.581 31.6822 10.7527 32.0801 11.2295 32.521C11.7071 32.9626 12.4376 33.3931 13.4005 33.7696C15.3219 34.521 18.025 35.0011 21.0469 35.0011C24.0688 35.0011 26.7719 34.521 28.6932 33.7696C29.6562 33.3931 30.3867 32.9626 30.8643 32.521ZM21.0469 35.718C27.223 35.718 32.2297 33.7603 32.2297 31.3452C32.2297 28.9303 27.223 26.9725 21.0469 26.9725C14.8708 26.9725 9.86411 28.9303 9.86411 31.3452C9.86411 33.7603 14.8708 35.718 21.0469 35.718Z" fill="#979797"/>
<path d="M21.9754 19.5699V19.5556L15.4664 13.3333H15.4807C15.409 13.362 15.3374 13.3763 15.2513 13.405L10.2764 14.9247C10.3194 16.2437 10.6205 17.5054 11.151 18.681C13.6886 24.2294 18.5488 30.0932 19.9825 31.7563C20.0829 31.8853 20.2406 31.957 20.4126 31.957C20.5703 31.957 20.728 31.8853 20.8427 31.7563C21.8033 30.638 24.3409 27.5842 26.6635 24.0143C25.5022 22.9247 23.8248 21.3333 21.9754 19.5699Z" fill="#EE0033"/>
<path d="M23.8248 10.2796L24.9001 4.97491C23.4951 4.24373 22.0327 3.89964 20.3553 3.89964C14.7639 3.89964 10.2047 8.44443 10.2047 14.0502C10.2047 14.1792 10.2047 14.3082 10.2191 14.4373L15.2083 12.9175C18.6062 11.8853 21.3015 11.0538 23.8248 10.2796L28.9718 8.70251C28.9861 8.70251 23.8248 10.2796 23.8248 10.2796Z" fill="#EE0033"/>
<path d="M29.3159 8.81719C28.3553 7.26881 26.9933 5.99282 25.3589 5.14694L24.3123 10.3512C24.2406 10.638 22.9503 16.0143 22.2478 19.1828C24.0972 20.9319 25.7747 22.5376 26.9359 23.6272C28.0542 21.9212 29.1152 20.086 29.9324 18.2939C30.5202 17.0036 30.8212 15.6129 30.8212 14.1505C30.8356 12.2007 30.2908 10.3656 29.3159 8.81719Z" fill="#EE0033"/>
</svg>
