<svg width="25" height="25" viewBox="0 0 25 25" fill="none" xmlns="http://www.w3.org/2000/svg">
<path d="M0.886069 8.12148C0.886069 8.11642 0.886069 8.11642 0.891137 8.11135C2.42154 3.77858 6.37425 0.591079 11.1226 0.170471C9.2881 1.17892 8.75094 4.36642 8.27965 8.12148C7.9604 10.6857 7.95533 13.5083 8.27459 16.0776C8.7408 19.8529 9.27796 23.0657 11.1226 24.0742C6.36918 23.6485 2.41141 20.4509 0.881001 16.108C0.875934 16.0978 0.875935 16.0826 0.870867 16.0725C0.440124 14.836 0.201947 13.5032 0.201947 12.1198C0.196879 10.7161 0.440124 9.37317 0.886069 8.12148Z" fill="#E12A28"/>
<path d="M7.66161 8.1215C8.13289 4.36643 9.2883 1.17893 11.1228 0.170488C11.4775 0.140082 11.8373 0.119812 12.2021 0.119812C17.4217 0.119812 21.8609 3.45427 23.513 8.11137C23.513 8.11643 23.513 8.11643 23.518 8.1215C23.9589 9.37319 24.2021 10.7161 24.2021 12.1198C24.2021 13.5033 23.964 14.836 23.5332 16.0725C23.5282 16.0826 23.5282 16.0928 23.5231 16.108C21.8761 20.7752 17.4319 24.1198 12.2021 24.1198C11.8373 24.1198 11.4775 24.0995 11.1228 24.0691C9.27816 23.0556 8.12276 19.8428 7.65654 16.0725C7.33728 13.5083 7.34235 10.6857 7.66161 8.1215Z" fill="#ED3432"/>
<path d="M12.3085 5.97284L10.8794 10.3563H6.26792L10.0027 13.0725L8.57367 17.461L12.3085 14.7448L16.0382 17.461L14.6142 13.0725L18.349 10.3563H13.7324L12.3085 5.97284Z" fill="#FDCE0C"/>
</svg>
