<svg width="26" height="26" viewBox="0 0 26 26" fill="none" xmlns="http://www.w3.org/2000/svg">
<path fill-rule="evenodd" clip-rule="evenodd" d="M15.8889 3.05359V0C21.6811 1.34892 26 6.65564 26 13C26 19.3444 21.6811 24.6511 15.8889 26V22.9464C20.0634 21.6716 23.1111 17.699 23.1111 13C23.1111 8.30103 20.0634 4.32839 15.8889 3.05359ZM0 17.447V8.55302H5.77778L13 1.14139V24.8586L5.77778 17.447H0ZM10.1111 17.6988V8.30083L6.97663 11.5175H2.88885V14.4821H6.97663L10.1111 17.6988ZM19.5 13.0002C19.5 10.3764 18.0266 8.1233 15.8889 7.02638V18.9591C18.0266 17.877 19.5 15.6239 19.5 13.0002Z" fill="white"/>
</svg>
